<svg xmlns="http://www.w3.org/2000/svg" width="120" height="120" viewBox="0 0 496 496">
    <style>.st0{fill:#c5d627}</style><circle cx="424" cy="72" r="40" class="st0"/><path d="M138.6 202l-77.3-58H24a24 24 0 0 1-24-24V24A24 24 0 0 1 24 0h144a24 24 0 0 1 24 24v96a24 24 0 0 1-24 24h-37.6l8.2 58z" class="st0"/><path d="M340.5 394.9l-52.5-9.5v-4.2a79.2 79.2 0 0 0 23.8-21.2H328a24 24 0 0 0 24-24V217a50.1 50.1 0 0 0-35.8-48.1l-4-4A98.6 98.6 0 0 0 144 234.6V296a32 32 0 0 0 25.5 31.3 80.2 80.2 0 0 0 38.5 53.8v4.2l-52.5 9.5a55.8 55.8 0 0 0-43.6 39L93.2 496h309.5l-18.6-62.1a55.8 55.8 0 0 0-43.6-39zM214 400.5l21.8 16.4-16.3 16.3-10.6-31.8 5.1-.9zm34 5.5l-23.3-17.5a78.2 78.2 0 0 0 46.6 0L248 406zm34-5.5l5.1.9-10.6 31.8-16.3-16.3 21.8-16.4zm46-56.5h-6.7a79 79 0 0 0 5.2-16.7c3.4-.7 6.6-2.1 9.5-3.8V336a8 8 0 0 1-8 8zm0-61.8a16 16 0 0 1 0 27.6v-27.6zM160 296a16 16 0 0 1 8-13.8v27.5c-4.8-2.7-8-7.8-8-13.7zm8-40v9.1a33 33 0 0 0-8 3.3v-33.9a82.6 82.6 0 0 1 140.8-58.3l7.1 7.1 2.2.5A34.1 34.1 0 0 1 336 217v51.5a33 33 0 0 0-8-3.3V256h-25.4a69.7 69.7 0 0 1-55.4-27.7l-6.4-8.5-15.8 15.9a68.8 68.8 0 0 1-49 20.3h-8zm16 56v-40.4a84.4 84.4 0 0 0 52.3-24.6l3.1-3.1a85.9 85.9 0 0 0 63.2 28.1h9.4v40c0 11.7-3.2 22.6-8.7 32H248v16h42.2A63.8 63.8 0 0 1 184 312zm-69.2 168l12.5-41.5a39.8 39.8 0 0 1 31.2-27.9l34.6-6.3 19.5 58.5 35.5-35.5 35.5 35.5 19.5-58.5 34.6 6.3a40 40 0 0 1 31.2 27.9l12.4 41.5H114.8zM32 32h128v16H32zM32 96h96v16H32zM472 125.6a72 72 0 1 0-96 0V136h-16v16h16v32h96v-32h16v-16h-16v-10.4zm-83-9.9a56 56 0 1 1 70 0l-3 2.4V136h-24V94.5a24 24 0 0 0-8-46.5 24 24 0 1 0-8 46.5V136h-24v-17.9l-3-2.4zM416 72c0-4.4 3.6-8 8-8s8 3.6 8 8-3.6 8-8 8-8-3.6-8-8zm40 96h-64v-16h64v16zM32 64h128v16H32zM144 96h16v16h-16z"/>
</svg>