<svg xmlns="http://www.w3.org/2000/svg" width="61" height="61" viewBox="0 0 496 496">
    <style>.st1{fill:#333}</style><path fill="#c5d627" d="M160 112v208h216v-72h24V112z"/><path d="M441.4 64l6.9-41.3L436.9 0H395l-11.4 22.7 6.9 41.3H128A64 64 0 0 0 0 64v368a64 64 0 0 0 64 64h432V64h-54.6zM384 288h24v104h16V288h24v128c0 17.6-14.4 32-32 32s-32-14.4-32-32V288zm64-16h-64v-16h64v16zM404.9 16H427l4.6 9.2-7.6 45.4V240h-16V72l-7.7-46.8 4.6-9.2zM16 64a48 48 0 0 1 96 0v325.8a63.9 63.9 0 0 0-96 0V64zm0 368a48 48 0 1 1 96 0 48 48 0 0 1-96 0zm464 48H106.2a63.9 63.9 0 0 0 21.8-48V80h264v160h-24v96H160v16h208v16H160v16h208v32a48 48 0 0 0 96 0V240h-24V80h40v400z" class="st1"/><path d="M408 408h16v16h-16zM160 400h160v16H160zM336 400h16v16h-16z" class="st1"/>
</svg>