<svg class="house-parameters__icon" xmlns="http://www.w3.org/2000/svg" width="50" height="50" viewBox="0 0 60 60" fill="#cfe82a"><path d="M48 0H14v22h34V0zm-2 20H16V2h30v18z"/><path d="M45 19V3H17v16h28zm-10.6-2a25.5 25.5 0 0 0-5.53-3.8c3.37-.83 9.37-2.13 14.13-2.2v6h-8.6zM43 5v4c-6.56.14-15.04 2.34-16.91 2.84A59.33 59.33 0 0 0 19 9.24V5h24zm-24 6.34c2.5.77 8.22 2.74 12.26 5.66H19v-5.66zM60 40.07a6 6 0 0 0-6-6H32c-5.07 0-6.07-1.19-7.88-3.36l-.68-.8c-4.94-5.7-13.36-6.54-18.77-1.9A10.9 10.9 0 0 0 1 36.37v4.32a5.96 5.96 0 0 0-.2 6.26 4.46 4.46 0 0 0 3.2 7V59a1 1 0 0 0 1 1h2a1 1 0 0 0 .95-.68L9.73 54h41.55l1.77 5.32A1 1 0 0 0 54 60h2a1 1 0 0 0 1-1v-5.28a4.49 4.49 0 0 0 3-4.14v-9.5zm-57-3.7a9.05 9.05 0 0 1 2.97-6.84c4.58-3.93 11.73-3.17 15.95 1.7l.66.77c1.9 2.27 3.41 4.07 9.42 4.07h22a4 4 0 0 1 4 4v5.7a4.48 4.48 0 0 0-2.5-.77H11.9l.01-.03a6 6 0 0 0-6.63-6.92l-.22.03-.5.1-.21.06c-.21.06-.42.12-.62.2l-.04.02c-.23.1-.45.21-.66.33l-.03.02v-2.44zm-.2 5.26c.18-.25.39-.46.6-.65l.11-.09c.19-.15.39-.27.6-.39l.19-.1c.19-.1.4-.17.6-.23l.23-.07A4 4 0 0 1 9.87 45H4.5c-.79 0-1.51.22-2.16.58a3.86 3.86 0 0 1 .3-3.75l.16-.2zM6.28 58H6v-3.93h1.6L6.27 58zM55 58h-.28l-1.33-4H55v4zm.5-6h-51a2.5 2.5 0 0 1-2.1-3.85l.14-.14.25-.24.02-.02.1-.09.21-.16.1-.06.1-.05c.07-.04.15-.09.23-.12l.16-.05.1-.03c.07-.02.13-.05.2-.06.16-.04.33-.06.5-.06H55.5a2.5 2.5 0 0 1 2.5 2.47A2.5 2.5 0 0 1 55.5 52z"/></svg>