<svg xmlns="http://www.w3.org/2000/svg" width="120" height="120" viewBox="0 0 501.2 501.2">
    <path d="M170.6 250.6H0l13.4-46.8a40.2 40.2 0 0 1 31.9-28.5l21.4-3.6v-5.6a47.5 47.5 0 0 1-16-35.6v-24a48 48 0 0 1 96 0v24c0 13.7-5.8 26.5-16 35.6v5.6l21.4 3.6a40 40 0 0 1 31.9 28.5l5.9 20.6-15.4 4.4-5.9-20.6a24 24 0 0 0-19.1-17.1l-34.7-5.8v-26.9l3.2-2.4a31.5 31.5 0 0 0 12.8-25.4v-24c0-17.6-14.4-32-32-32s-32 14.4-32 32v24c0 10 4.7 19.3 12.8 25.4l3.2 2.4v26.9l-34.7 5.8A24 24 0 0 0 29 208.2l-7.5 26.4h149.4v16h-.3zM501.2 250.6H330.6v-16H480l-7.5-26.4a24 24 0 0 0-19.1-17.1l-34.7-5.8v-26.9l3.2-2.4a31.5 31.5 0 0 0 12.8-25.4v-24c0-17.6-14.4-32-32-32s-32 14.4-32 32v24c0 10 4.7 19.3 12.8 25.4l3.2 2.4v26.9l-34.7 5.8a24 24 0 0 0-19.1 17.1l-8.2 28.6-15.4-4.4 8.2-28.6a40.2 40.2 0 0 1 31.9-28.5l21.4-3.6v-5.6a47.5 47.5 0 0 1-16-35.6v-24a48 48 0 0 1 96 0v24c0 13.7-5.8 26.5-16 35.6v5.6l21.4 3.6a40 40 0 0 1 31.9 28.5l13.1 46.8z"/><path d="M346.2 194.6H175.6v-16H325l-7.5-26.4a24 24 0 0 0-19.1-17.1l-34.7-5.8v-26.9l3.2-2.4a31.5 31.5 0 0 0 12.8-25.4v-24c0-17.6-14.4-32-32-32s-32 14.4-32 32v24c0 10 4.7 19.3 12.8 25.4l3.2 2.4v26.9l-34.7 5.8a24 24 0 0 0-19.1 17.1l-8.2 28.6-15.4-4.4 8.2-28.6a40.2 40.2 0 0 1 31.9-28.5l21.4-3.6v-5.6a47.5 47.5 0 0 1-16-35.6v-24a48 48 0 0 1 96 0v24c0 13.7-5.8 26.5-16 35.6v5.6l21.4 3.6a40 40 0 0 1 31.9 28.5l13.1 46.8z"/><path fill="#c5d627" d="M318.8 171.5l-4-4a98.6 98.6 0 0 0-168.2 69.7v61.5h8a24 24 0 0 1 24-24v-8c20.5 0 40.1-8.1 54.6-22.6l9.4-9.4.8 1.1a77.2 77.2 0 0 0 61.8 30.9h17.4v8a24 24 0 0 1 24 24h8v-79a50.1 50.1 0 0 0-35.8-48.2z"/><path d="M386.7 436.5a55.8 55.8 0 0 0-43.6-39l-52.5-9.6v-4.1a80.2 80.2 0 0 0 38.5-53.8 32 32 0 1 0 1.5-62.2v-9.1h-25.4a69.7 69.7 0 0 1-55.4-27.7l-6.4-8.5-15.9 15.9a68.8 68.8 0 0 1-49 20.3h-8v9.1A32 32 0 0 0 172 330a80.2 80.2 0 0 0 38.5 53.8v4.1l-52.5 9.5a55.8 55.8 0 0 0-43.6 39l-18.6 62.1h309.5l-18.6-62zM162.6 298.6a16 16 0 0 1 8-13.8v27.6a16 16 0 0 1-8-13.8zm54 104.5l21.8 16.4-16.3 16.3-10.6-31.8 5.1-.9zm34 5.5l-23.3-17.5a78.2 78.2 0 0 0 46.6 0l-23.3 17.5zm34-5.5l5.1.9-10.6 31.8-16.3-16.3 21.8-16.4zm54-104.5a16 16 0 0 1-8 13.8v-27.6a16 16 0 0 1 8 13.8zm-152 16v-40.4a84.4 84.4 0 0 0 52.3-24.6l3.1-3.1a85.6 85.6 0 0 0 63.2 28.1h9.4v40a64 64 0 0 1-128 0zm-69.2 168l12.5-41.5a39.8 39.8 0 0 1 31.2-27.9l34.6-6.3 19.5 58.5 35.5-35.5 35.5 35.5 19.5-58.5 34.6 6.3a40 40 0 0 1 31.2 27.9l12.5 41.5H117.4z"/>
</svg>