<svg xmlns="http://www.w3.org/2000/svg" width="61" height="61" viewBox="0 0 285.9 285.9">
    <style>.st0{fill:#333}</style><path d="M218 103.1h-46.9v9.4H218a14 14 0 0 1 14.1 14.1v18.9a23 23 0 0 0-14.1-4.8H68a14 14 0 1 1 0-28.2h51.6v-9.4H68a23.4 23.4 0 0 0-23.4 23.4v135.9A23.4 23.4 0 0 0 68 285.8h150a23.4 23.4 0 0 0 23.4-23.4v-136a23.4 23.4 0 0 0-23.4-23.3zm14 136h-56.2a23.4 23.4 0 0 1 0-46.8H232v46.8zm0-56.3h-56.2a32.8 32.8 0 0 0 0 65.6H232v14.1a14 14 0 0 1-14.1 14.1H68a14 14 0 0 1-14.1-14.1V145.3c3.9 2.9 8.8 4.7 14.1 4.7h150a14 14 0 0 1 14.1 14.1v18.7z" class="st0"/><path fill="#c5d627" d="M171.3 123.7c8.4.1 16.8.3 25.2-.1v-49h-4.8a9.7 9.7 0 0 1-9.7-9.7v-4.8h-77.5v4.8c0 5.3-4.3 9.7-9.7 9.7H90v48c27.1-.3 54.2.6 81.3 1.1z"/><path d="M68 121.9h150v9.4H68z" class="st0"/><path d="M206.2 124c2.9-2.5 7.8-2.5 9.7 1.2V40.7H70.6v83.9a6 6 0 0 1 2.7-1.5 7 7 0 0 1 7 2.4V50.4h125.9V124zM161.7 215.6a14 14 0 1 0 28.2 0 14 14 0 0 0-28.2 0zm18.8 0a4.7 4.7 0 1 1-9.4 0 4.7 4.7 0 0 1 9.4 0z" class="st0"/>
</svg>