<svg class="house-parameters__icon" xmlns="http://www.w3.org/2000/svg" width="50" height="50" viewBox="0 0 60 60" fill="#cfe82a"><path d="M14 23a1 1 0 0 0 1-1V11a1 1 0 1 0-2 0v11a1 1 0 0 0 1 1zM18 30a1 1 0 0 0 1-1V17a1 1 0 1 0-2 0v12a1 1 0 0 0 1 1zM22 27a1 1 0 0 0 1-1V13a1 1 0 1 0-2 0v13a1 1 0 0 0 1 1zM27 32a1 1 0 0 0 1-1V20a1 1 0 1 0-2 0v11a1 1 0 0 0 1 1z"/><path d="M58.51.19a2.41 2.41 0 0 0-2.63.52l-2.6 2.59a5.76 5.76 0 0 0-7.55.49 1 1 0 0 0 0 1.41l7.07 7.07a1 1 0 0 0 1.42 0 5.76 5.76 0 0 0 .48-7.56l2.6-2.59a.4.4 0 0 1 .44-.09c.1.04.26.15.26.39v29.76a2.97 2.97 0 0 0-1-.18H33V7a1 1 0 0 0-1-1h-1V4h6a1 1 0 1 0 0-2h-6V1a1 1 0 1 0-2 0v1h-1V1a1 1 0 1 0-2 0v1h-1V1a1 1 0 1 0-2 0v1h-1V1a1 1 0 1 0-2 0v1h-1V1a1 1 0 1 0-2 0v1h-1V1a1 1 0 1 0-2 0v1h-1V1a1 1 0 1 0-2 0v1H5a1 1 0 1 0 0 2h6v2h-1a1 1 0 0 0-1 1v25H3a3 3 0 1 0-.8 5.88l3.56 12.79A7.3 7.3 0 0 0 11 55.75V59a1 1 0 0 0 1 1h3a1 1 0 0 0 .9-.55L17.61 56h24.76l1.73 3.45A1 1 0 0 0 45 60h3a1 1 0 0 0 1-1v-3.25a7.29 7.29 0 0 0 5.24-5.08l3.55-12.79A3 3 0 0 0 60 35V2.42A2.4 2.4 0 0 0 58.51.19zm-5.1 9.87l-5.46-5.47a3.77 3.77 0 0 1 4.52.61l.33.33a3.78 3.78 0 0 1 .61 4.53zM57 34a1 1 0 0 1 0 2H33v-2h24zM29 4v2h-1V4h1zm-3 0v2h-1V4h1zm-3 0v2h-1V4h1zm-3 0v2h-1V4h1zm-3 0v2h-1V4h1zm-4 0h1v2h-1V4zm-2 4h20v35H11V8zM3 34h6v2H3a1 1 0 0 1 0-2zm11.38 24H13v-2h2.38l-1 2zM47 58h-1.38l-1-2H47v2zm5.31-7.87A5.3 5.3 0 0 1 47.23 54H12.77a5.3 5.3 0 0 1-5.08-3.87L4.3 38H9v7h24v-7h22.68l-3.37 12.13z"/></svg>