<svg class="house-parameters__icon" xmlns="http://www.w3.org/2000/svg" width="50" height="50" viewBox="0 0 60 60" fill="#cfe82a"><path d="M18 2H2v18h16V2zm-2 16H4V4h12v14z"/><path d="M15 5H5v12h10V5zm-2 10H7V7h6v8zM48 8.5c-.6 0-1 .4-1 1s.4 1 1 1h1v6H39c-.6 0-1 .4-1 1s.4 1 1 1h1v6H30c-.6 0-1 .4-1 1s.4 1 1 1h1v6H21c-.6 0-1 .4-1 1s.4 1 1 1h1v6H12c-.6 0-1 .4-1 1s.4 1 1 1h1v6H3c-.6 0-1 .4-1 1s.4 1 1 1h1v6H1c-.6 0-1 .4-1 1s.4 1 1 1h59v-50H48zm9.8 48.3c-.1 0-.2 0-.3-.1-.2.1-.3.1-.5 0s-.2-.2-.3-.3h-9.5H45h-6-6.1-3.5c-.1.1-.2.1-.3.1-.8 0-1.6-.1-2.3-.1H6v-6h9v-8h9v-8h9v-8h9v-8h9v-8h7V55c.3.2.4.5.3.8.2.5 0 1-.5 1zM58 33.5v4M58 27.5v4M58 21.5v4M58 45.5v4M58 39.5v4"/><path d="M4 56.5h54.3V58H4z"/><path d="M58 55h1.4v2.3H58z"/><g><path d="M50.2 29.5H36.9a1 1 0 0 0-1 1V57a1 1 0 0 0 2 0V31.5h11.2V57c0 .5.4 1 1 1s1-.4 1-1V30.5c.1-.6-.4-1-.9-1z"/></g><g><path d="M46.9 42.7c-.5 0-1 .5-1 1s.4 1 1 1 1-.4 1-1v-.1c-.1-.5-.5-.9-1-.9z"/></g></svg>