<svg xmlns="http://www.w3.org/2000/svg" width="120" height="120" viewBox="0 0 291.6 291.6">
    <style>.st1{fill:#333}</style><circle cx="164.6" cy="126.9" r="65.6" fill="#c5d627"/><path d="M261.9 19.1c-32.9 0-65.1-6.2-95.6-18.4l-1.7-.7-1.7.7a256.4 256.4 0 0 1-95.6 18.4H56.8v98.4H33.3a14 14 0 0 0-14.1 14.1v79.7a14 14 0 0 0 14.1 14.1h42.2a122 122 0 0 0 44.7 42.1l44.3 24.2 44.3-24.2a121.7 121.7 0 0 0 63.5-106.9V19.1h-10.4zM28.6 211.3v-79.7c0-2.6 2.1-4.7 4.7-4.7h42.2c2.6 0 4.7 2.1 4.7 4.7v79.7c0 2.6-2.1 4.7-4.7 4.7H33.3a4.7 4.7 0 0 1-4.7-4.7zm61-70.4a29.7 29.7 0 0 0 28.1-29.7V87.1a11.7 11.7 0 0 1 23.4 0v29.5a15 15 0 0 0 15 15h34.4c8.9 0 16.2 7.3 16.2 16.2v51.9c0 9-7.3 16.2-16.2 16.2h-69.1c-3.7 0-7.2-1.9-9.2-4.9a20.4 20.4 0 0 0-17-9.1h-5.6v-61zM263 160.5c0 41.2-22.4 79-58.6 98.7L164.6 281l-39.8-21.7a112.1 112.1 0 0 1-40.2-37.2c2.8-2.4 4.7-5.9 5-9.8a103.5 103.5 0 0 0 39.7 38.8l35.4 19.3 35.4-19.3a103 103 0 0 0 53.7-90.5V89.4h-9.4v71.1a93.5 93.5 0 0 1-48.8 82.2l-30.9 16.8-30.9-16.8a93 93 0 0 1-32.6-29.7c1.3.8 2.5 1.9 3.4 3.2a20.4 20.4 0 0 0 17 9.1h69.1a25.6 25.6 0 0 0 25.6-25.6v-51.9a25.6 25.6 0 0 0-25.6-25.6h-34.4a5.7 5.7 0 0 1-5.7-5.7V87.1c0-11.6-9.5-21.1-21.1-21.1s-21.1 9.5-21.1 21.1v24.2c0 10.7-8.3 19.4-18.8 20.2 0-4.1-1.9-7.7-4.7-10.2V46.7c27.2-1.7 54-7.2 79.7-16.6a286.7 286.7 0 0 0 79.7 16.6v5.2h9.4V37.8l-4.5-.2c-28.4-1.3-56.3-7-83-16.8l-1.6-.6-1.6.6a274.3 274.3 0 0 1-83 16.8l-4.5.2v79.8h-9.4V28.5h1.1c33.5 0 66.2-6.2 97.4-18.4A265.7 265.7 0 0 0 262 28.5h1.1l-.1 132z" class="st1"/><path d="M244.3 70.7h9.4v9.4h-9.4zM38 197.2h32.8v9.4H38z" class="st1"/>
</svg>