<svg xmlns="http://www.w3.org/2000/svg" width="67" height="67" viewBox="0 0 496 496">
    <style>.st0{fill:#c5d627}.st1{fill:#333}</style><circle cx="248" cy="168" r="40" class="st0"/><path d="M192 272h112v96H192z" class="st0"/><g><path d="M464 239.7a35 35 0 0 0 19.2-62L281.4 12a52.2 52.2 0 0 0-66.8 0L144 70V48h8c13.2 0 24-10.8 24-24S165.2 0 152 0H40C26.8 0 16 10.8 16 24s10.8 24 24 24h8v100.8l-35.2 28.9A35 35 0 0 0 32 239.6V384H0v112h496V384h-32V239.7zM32 24a8 8 0 0 1 8-8h112c4.4 0 8 3.6 8 8s-3.6 8-8 8H40a8 8 0 0 1-8-8zm32 24h64v35.1l-64 52.6V48zM48 238.5c4.6-1.3 9-3.5 12.7-6.6L239 83.3c5.1-4.2 13-4.2 18 0l160.9 134.1 10.2-12.3L267.3 71c-10.8-9-27.7-9-38.5 0L50.4 219.6a19 19 0 0 1-12.3 4.4h-3a19.2 19.2 0 0 1-12.2-34L224.7 24.3a37.6 37.6 0 0 1 46.6 0L473 190a19.2 19.2 0 0 1-12.2 34h-3c-4.5 0-8.8-1.6-12.3-4.4l-8.4-7-10.2 12.3 8.4 7c3.7 3.1 8.1 5.3 12.7 6.6V384h-16v32h-48v-32h-60.2a71.8 71.8 0 0 0-59.8-32h-32a71.8 71.8 0 0 0-59.8 32H112v32H64v-32H48V238.5zM432 448h-48v-16h48v16zm-320 0H64v-16h48v16zm-64 32H16v-80h32v80zm16 0v-16h48v16H64zm64 0v-80h32v80h-32zm128 0v-16h-16v16h-64v-56a56 56 0 0 1 56-56h8v80h16v-80h8a56 56 0 0 1 56 56v56h-64zm80 0v-80h32v80h-32zm48 0v-16h48v16h-48zm96 0h-32v-80h32v80z" class="st1"/><path d="M248 216a48 48 0 1 0 0-96 48 48 0 0 0 0 96zm-30.9-40H240v22.9a32 32 0 0 1-22.9-22.9zm38.9 22.9V176h22.9a32 32 0 0 1-22.9 22.9zm22.9-38.9H256v-22.9a32 32 0 0 1 22.9 22.9zM240 137.1V160h-22.9a32 32 0 0 1 22.9-22.9zM208 408h16v16h-16zM272 408h16v16h-16zM208 320h16v16h-16zM416 256h-80v80h80v-80zm-16 32h-16v-16h16v16zm-32-16v16h-16v-16h16zm-16 32h16v16h-16v-16zm32 16v-16h16v16h-16zM160 256H80v80h80v-80zm-16 32h-16v-16h16v16zm-32-16v16H96v-16h16zm-16 32h16v16H96v-16zm32 16v-16h16v16h-16z" class="st1"/></g>
</svg>